<svg version="1" xmlns="http://www.w3.org/2000/svg" width="928" height="928" viewBox="0 0 696.000000 696.000000"><path d="M111.5 1.6C101.4 3.4 86.8 8.1 81 11.4c-2.5 1.4-5.6 3.1-7 3.6-1.3.6-2.7 1.4-3 1.8-.3.4-2.3 2-4.5 3.7-17.2 12.7-31.4 36.1-35.1 58-.4 2.2-.9 4.9-1.3 6-.3 1.1-.7 139.2-.8 306.8L29 696.2l2.7-3.4c1.5-1.8 3.2-3.8 3.8-4.4.5-.6 2.9-3.3 5.2-6 2.3-2.7 5-5.9 6-7 14.5-16.7 14.9-17.2 19.1-22.3 2.1-2.4 4.6-5.4 5.7-6.5 1.1-1.2 3.8-4.3 6-7l4-4.9V364.6c0-148.6.3-270.6.7-271.2.4-.6 1-2.5 1.3-4.3 1.5-8.8 10.2-21 19-26.9 7.8-5.2 10.8-6.6 17.5-8.3 8.1-1.9 446.6-2.1 455.5-.2 20 4.4 35.2 20.2 38.8 40 .9 5.2 1.2 57.4 1.2 222.9l-.1 216.1-5.1 10.4c-2.8 5.7-8.8 18-13.3 27.4-4.5 9.3-13.4 27.5-19.6 40.3-6.3 12.8-11.4 23.5-11.4 23.8 0 .7 9.6.3 15.5-.7 2.8-.4 6.7-1.1 8.9-1.4 5.7-.8 18.1-5.1 26.1-9.1 17.3-8.7 31.6-23.2 40.4-41.1 2.7-5.5 6.7-16.4 7.7-20.8 1.1-5.3 1.5-7.2 2.2-9.5 1.1-4.1 1.3-460.7.1-466.5-.5-2.8-1.2-6.4-1.4-8-.6-4.3-5.3-18.6-6.6-20.2-.6-.7-.9-1.3-.5-1.3.3 0-.8-2.3-2.4-5-1.7-2.8-3-5.3-3-5.6 0-.5-2.8-4.6-6-8.7-1.6-2.1-13.5-14.1-16-16.1-3.3-2.7-14.9-9.4-20.5-11.8-6.5-2.9-18.5-6.2-28-7.7-3.7-.6-92.8-1-234.5-.9-193.3 0-229.7.2-236.5 1.4z"/><path d="M205.3 136.9c-.6.5-1 24.9-.4 30.8.1.9 5.2 1.3 20.4 1.5l20.2.3V301l2.8.1c3.5.1 25 .1 28.1 0l2.4-.1.1-62.3v-66l.1-3.7h41l.1-3.8c.1-2 0-4.2-.1-4.7-.1-.6-.2-6.2-.2-12.6l.1-11.5-56.9-.1c-31.3 0-57.2.3-57.7.6zM340.6 136.9c-.5 1.3 0 165.7.6 166.6.4.6 4.4.8 10.3.5 5.3-.3 10.1-.3 10.5 0 .4.3 3.3.3 6.4.2l5.6-.4v-45.4c0-25 .3-45.4.8-45.3.4 0 3.1 3.3 5.9 7.2 2.9 4 6.1 8.3 7.2 9.7 4.6 5.8 11.9 15.2 16 20.5l4.3 5.6 1.9-2.3c1.7-2.2 20-25.8 23.7-30.6.9-1.2 2.9-3.7 4.5-5.5 1.5-1.7 2.7-3.5 2.7-3.9 0-.5.4-.8.8-.8s.7 20.4.7 45.4l-.1 45.5 8.8.3c4.8.2 8.8.1 8.8-.2 0-.3 2.8-.3 6.3 0s7 .4 7.9.2c1.4-.3 1.6-8.1 1.4-84l-.1-83.7-4.8-.2c-5.5-.2-4-1.5-17.7 15.7-12.2 15.4-12.7 16.1-15.3 19.4-15.1 19.7-29 36.4-30 36-.7-.3-5-5.5-9.7-11.6-4.7-6-9-11.5-9.5-12.2-.6-.6-5.1-6.3-10-12.6s-9.4-12-10-12.7c-.5-.6-1.8-2.2-2.8-3.5-1-1.3-4.6-5.9-8.1-10.4l-6.4-8h-5.1c-2.9-.1-5.3.2-5.5.5zM206.4 333.5c-.1.5-.2 37.7-.1 82.5l.2 81.5 28.5.1c35.8 0 46.2-1.6 60.9-9.3 7.8-4.1 12.1-7.3 17.7-12.8 4.9-4.9 12.4-14.8 12.4-16.3 0-.7.5-1.2 1-1.2.6 0 .9-.3.8-.8-.1-.4.5-2.1 1.4-3.7 8.5-16.3 10.8-43.1 5.3-62.5-4.9-17.1-15-32.5-28.1-42.8-2.8-2.1-19.8-11.3-20.9-11.2-.3 0-.6 0-.7-.1-11.3-3.4-19-4.1-48.2-4.3-20-.1-29.9.1-30.2.9zm57.9 32.9c2.6.3 6.5 1.3 8.5 2.2 2 .9 4.2 1.7 4.7 1.8 2 .3 10.3 6.6 13.3 10 5.4 6.2 10 15.7 11.9 24.6 1 4.7.6 17.5-.7 23-2 8.5-7.8 18.5-13.9 24.1-5.2 4.8-13.1 9.6-17.5 10.5-6.3 1.4-9.1 1.6-19.6 1.7l-11.5.2-.1-49c-.1-27 0-49.3.2-49.6.4-.7 18.3-.3 24.7.5zM367 415.2v82.7l36.8-.3c20.2-.1 37.6-.5 38.7-.9 22.8-6.4 36.7-22.8 38.2-45.3.9-12.8-3.6-24.2-12.9-33.2l-3.4-3.2 4.1-4.3c7.7-8 11-18.7 10.2-32.5-.3-4.8-.8-9.8-1.2-11.2-.3-1.4-.7-3-.8-3.5-.8-3.8-6.7-13.5-10.6-17.5-6.3-6.5-12-9.7-22.6-12.7-1.1-.3-18.8-.6-39.2-.7l-37.3-.2v82.8zm69-48.2c4.2 2.3 7.3 6.4 8.4 11.2.5 2.2.3 2.8-1 2.8s-26.3-9-35.4-12.7c-.8-.3-2.1-.7-2.9-.9-.7-.1-1.8-.7-2.3-1.2-1.5-1.5 30.3-.8 33.2.8z"/></svg>